# xmcd CD database file
#
# Track frame offsets:
#	150
#	17611
#	40492
#
# Disc length: 847 seconds
#
# Revision: 0
# Processed by: cddbd v1.5.1PL0 Copyright (c) Steve Scherf et al.
# Submitted via: CDex 1.51
#
DISCID=1c034d03
DTITLE=D.J.B - Jump Up!!
DYEAR=1900
DGENRE=Rock
TTITLE0=Jump up!!
TTITLE1=Mr.Martin Molephant
TTITLE2=Drop the junky bomb
EXTD=
EXTT0=
EXTT1=
EXTT2=
PLAYORDER=
